<svg width="726" height="726" viewBox="0 0 726 726" fill="none" xmlns="http://www.w3.org/2000/svg">
<circle cx="363" cy="363" r="363" fill="white"/>
<path d="M468.079 299.922C453.735 307.004 438.386 315.051 422.252 323.884C405.191 333.233 387.551 343.302 369.923 353.835C332.376 376.227 296.747 399.43 267.26 420.598C237.89 441.728 217.12 459.047 207.321 470.597C198.334 481.155 199.196 486.151 209.691 485.134C202.763 485.791 197.909 485.07 195.205 482.791C192.32 480.434 192.063 476.314 194.741 470.417C197.535 464.172 203.574 456.06 212.832 446.248C222.657 435.921 235.739 423.998 251.873 410.877C285.429 383.463 328.552 353.345 375.202 325.043C397.221 311.626 419.072 299.265 439.996 288.282C459.581 278.032 477.891 269.212 494.398 262.181C509.528 255.717 522.249 251.095 532.576 248.082C542.079 245.339 549.496 243.987 555.161 243.794C564.999 243.395 569.184 246.614 568.913 252.215C568.707 256.979 565.23 263.533 559.114 271.349C553.771 278.199 547.487 286.749 539.761 295.286V295.003C545.568 288.256 548.427 283.26 550.835 279.204C553.5 274.826 553.436 271.877 550.32 270.783C546.779 269.482 539.31 270.487 527.413 274.388C520.794 276.564 512.811 279.564 503.373 283.607C493.252 287.882 481.535 293.329 468.079 299.922Z" fill="#F1CF1D"/>
<path d="M353.686 317.846C291.764 319.391 232.172 327.555 202.287 338.641C213.244 334.559 225.258 331.005 237.735 328.005C249.581 325.134 262.251 322.571 275.231 320.473C300.648 316.352 330.071 313.352 360.961 312.296C377.855 311.704 394.568 311.691 410.741 312.206C419.432 312.489 428.008 312.953 436.519 313.558C445.52 314.215 454.366 315.065 463.083 316.095C472.354 317.215 481.393 318.567 490.162 320.138C499.587 321.838 508.613 323.808 517.112 326.074C526.344 328.572 534.907 331.379 542.504 334.585C550.732 338.062 557.878 342.04 563.299 346.405C559.217 343.096 553.165 340.083 545.646 337.328C538.679 334.74 530.413 332.448 521.245 330.374C512.682 328.417 503.411 326.756 493.548 325.25C484.329 323.898 474.697 322.7 464.718 321.67C455.383 320.717 445.777 319.945 435.978 319.34C426.682 318.734 417.282 318.322 407.766 318.039C390.087 317.46 371.932 317.421 353.686 317.859V317.846Z" fill="#F1CF1D"/>
<path fill-rule="evenodd" clip-rule="evenodd" d="M461.525 244.811C461.525 244.811 442.674 213.767 437.536 206.466C432.399 199.126 417.836 199.242 413.02 207.625C408.14 216.02 408.784 218.415 408.784 218.415L406.44 239.97C406.44 239.97 402.59 257.366 406.891 259.22C448.185 277.311 461.538 244.799 461.538 244.799L461.525 244.811Z" fill="#231F20"/>
<path fill-rule="evenodd" clip-rule="evenodd" d="M500.965 325.648C500.965 325.648 491.823 307.789 489.003 296.87C486.183 285.938 484.02 276.023 479.397 263.301C474.774 250.554 457.816 256.104 457.816 256.104C457.816 256.104 456.542 261.035 454.752 265.49C452.923 269.856 448.236 277.697 433.854 280.118C419.497 282.474 412.299 280.118 402.68 270.474C402.68 270.474 392.714 272.624 387.692 277.633C382.683 282.642 370.734 321.747 370.734 321.747L349.939 378.39L340.359 399.97L342.767 409.576L349.939 395.193L361.927 378.39L387.37 333.361L396.95 318.991C396.95 318.991 398.907 307.3 402.268 325.957C406.556 350.204 411.565 353.989 400.234 370.638C394.761 378.686 391.362 391.008 388.915 405.288C387.409 414.018 387.177 420.006 390.396 435.277C391.735 441.599 395.766 450.214 397.233 458.236C398.276 463.965 400.272 486.267 400.272 486.267L405.127 505.504C405.127 505.504 408.281 518.818 409.852 527.033C411.5 535.287 407.457 553.314 407.457 560.615C407.457 567.916 409.852 584.59 409.852 584.59C409.852 584.59 413.355 604.471 414.694 608.553C416.02 612.596 417.282 615.584 419.509 613.382C421.737 611.154 426.669 598.973 426.669 598.973C426.669 598.973 429.952 592.226 431.433 589.38C435.077 582.53 429.682 581.899 431.433 577.406C432.128 575.654 439.236 560.409 441.064 555.851C442.893 551.241 447.039 546.425 450.528 536.356C453.773 526.969 455.808 521.278 454.881 511.917C454.353 506.007 453.026 506.972 453.026 495.912C453.026 484.851 464.074 465.91 467.911 455.107C471.787 444.278 472.238 423.959 472.238 423.959V407.181L469.856 390.442C469.856 390.442 461.448 370.471 460.263 361.625C459.091 352.805 468.98 305.124 468.98 305.124L491.449 344.873L508.227 371.205L510.519 385.549L511.408 392.103C511.408 392.103 516.494 387.622 517.962 381.351C518.863 377.604 515.502 374.437 513.03 366.415C510.519 358.419 501.003 325.661 501.003 325.661L500.965 325.648Z" fill="#231F20"/>
<path fill-rule="evenodd" clip-rule="evenodd" d="M398.07 287.123L393.216 274.646C393.216 274.646 372.241 222.69 370.876 215.878C369.537 209.067 361.927 199.783 354.935 193.165C349.244 187.782 333.921 191.439 316.255 190.486C306.469 189.971 285.467 194.967 285.467 194.967C285.467 194.967 258.067 201.805 249.156 207.174C244.199 210.136 240.078 230.918 238.701 238.167C237.297 245.404 227.382 292.698 227.382 292.698C224.125 310.287 212.832 343.019 212.163 348.723C211.519 354.44 210.965 368.385 210.965 372.274C210.965 376.162 211.055 383.064 211.055 383.064L213.476 395.052L218.253 385.485C218.253 385.485 223.03 373.716 225.271 366.325C227.498 358.908 229.533 351.71 232.636 342.298C235.713 332.924 252.414 286.44 252.414 286.44L258.35 265.581C258.35 265.581 260.062 287.136 261.041 296.291C262.226 307.313 263.204 318.657 261.942 325.481C260.681 332.331 259.882 335.448 258.994 342.298C258.067 349.148 259.895 384.017 261.402 395.052C263.462 410.645 263.063 410.697 263.797 426.238L266.192 452.609C266.192 452.609 269.243 481.336 273.338 488.559C277.471 495.744 296.786 527.304 296.786 527.304L310.228 532.017L309.327 518.6C309.327 518.6 308.168 502.904 304.537 490.929C300.906 479.005 302.181 454.965 302.181 454.965V399.842C302.181 399.842 316.473 495.036 316.538 502.916C316.564 510.835 317.246 522.965 318.135 532.635C319.538 548.537 320.491 549.22 321.946 569.204C321.946 569.204 321.122 588.582 328.384 591.106C345.986 597.209 340.655 578.822 340.655 578.822L342.896 550.881V529.287L347.66 478.979L350.081 442.99C350.081 442.99 352.759 358.02 352.488 349.508C352.244 340.971 350.145 330.864 350.145 324.876C350.145 318.889 350.995 310.3 352.488 291.951C354.008 273.603 352.488 251.185 352.488 251.185C352.488 251.185 374.198 278.315 378.872 287.123C383.52 295.995 402.242 320.485 402.242 320.485L404.895 309.154L398.058 287.123H398.07Z" fill="#231F20"/>
<path fill-rule="evenodd" clip-rule="evenodd" d="M317.697 149.707C315.096 163.858 314.606 184.653 300.571 184.653C258.543 174.52 276.158 109.366 301.704 112.083C313.229 112.083 317.71 130.187 317.71 149.72L317.697 149.707Z" fill="#231F20"/>
<path fill-rule="evenodd" clip-rule="evenodd" d="M309.005 552.774C309.417 548.743 308.967 535.918 308.967 535.918L297.005 531.785C297.005 531.785 291.764 550.366 292.189 554.898C292.678 559.456 294.558 568.444 297.005 569.667C299.515 570.8 304.988 567.04 306.61 563.306C308.233 559.611 309.005 552.761 309.005 552.761C308.567 556.842 309.005 552.761 309.005 552.761V552.774Z" fill="#231F20"/>
<path d="M260.088 382.846C275.295 384.7 291.79 386.065 309.289 387.043C327.83 388.099 347.145 388.601 366.768 388.64C408.423 388.691 448.893 386.425 483.337 382.112C517.704 377.824 543.148 371.914 556.796 365.063C569.351 358.78 571.038 352.097 561.908 345.736C567.922 349.934 571.527 354.337 572.634 358.986C573.858 364.02 572.016 369.184 567.046 374.321C561.664 379.897 552.805 385.279 540.444 390.43C527.413 395.863 510.867 400.795 491.282 405.057C450.451 413.942 400.453 419.131 348.432 419.672C323.839 419.942 299.94 419.17 277.523 417.277C256.444 415.551 237.143 412.925 220.198 409.525C204.63 406.383 192.011 402.842 182.084 398.954C172.954 395.426 166.207 391.704 161.495 387.854C153.254 381.159 151.387 374.257 154.271 367.716C156.795 362.102 162.834 356.668 171.59 351.672C179.354 347.281 189.41 343.032 201.463 339.118C192.604 341.963 186.23 344.964 182.238 348.092C177.95 351.518 176.611 355.084 178.556 358.741C180.835 362.797 187.427 366.943 199.093 370.845C205.544 373.021 213.605 375.146 223.301 377.103C233.653 379.24 245.912 381.185 260.127 382.846H260.088Z" fill="#F1CF1D"/>
<path d="M416.806 399.494C471.066 364.934 528.288 312.669 539.207 295.686L539.362 295.969C531.765 306.167 522.584 316.79 513.506 326.782C504.828 336.246 495.183 345.736 484.998 354.955C465.117 373.021 440.833 391.974 414.089 409.551C399.358 419.143 384.447 428.041 369.73 436.011C361.785 440.273 353.789 444.355 345.819 448.166C337.385 452.235 328.899 455.982 320.491 459.459C311.516 463.129 302.503 466.451 293.683 469.387C284.167 472.451 274.741 475.078 265.741 477.061C233.087 483.177 217.635 484.001 210.618 485.083L210.476 484.98C243.04 481.246 277.561 469.078 287.231 465.511C296.387 462.15 305.838 458.352 315.34 454.141C324.341 450.24 333.432 446.003 342.522 441.497C351.188 437.235 359.854 432.766 368.507 428.028C384.653 419.259 400.903 409.679 416.818 399.494H416.806Z" fill="#F1CF1D"/>
</svg>
